<svg width="500" height="500" viewBox="0 0 500 500" fill="none" xmlns="http://www.w3.org/2000/svg">
<g clip-path="url(#clip0_5_2)">
<rect width="500" height="500" fill="white"/>
<path d="M78.3848 250.5C78.3848 216.5 86.0514 186 101.385 159C116.718 131.667 137.551 110.333 163.885 95C190.551 79.6667 220.051 72 252.385 72C290.385 72 323.551 81.1667 351.885 99.5C380.218 117.833 400.885 143.833 413.885 177.5H359.385C349.718 156.5 335.718 140.333 317.385 129C299.385 117.667 277.718 112 252.385 112C228.051 112 206.218 117.667 186.885 129C167.551 140.333 152.385 156.5 141.385 177.5C130.385 198.167 124.885 222.5 124.885 250.5C124.885 278.167 130.385 302.5 141.385 323.5C152.385 344.167 167.551 360.167 186.885 371.5C206.218 382.833 228.051 388.5 252.385 388.5C277.718 388.5 299.385 383 317.385 372C335.718 360.667 349.718 344.5 359.385 323.5H413.885C400.885 356.833 380.218 382.667 351.885 401C323.551 419 290.385 428 252.385 428C220.051 428 190.551 420.5 163.885 405.5C137.551 390.167 116.718 369 101.385 342C86.0514 315 78.3848 284.5 78.3848 250.5Z" fill="black"/>
<path d="M267.619 259.4L271.854 245.47H278.224L271.294 265H263.909L256.979 245.47H263.384L267.619 259.4ZM279.553 255.2C279.553 253.193 279.927 251.432 280.673 249.915C281.443 248.398 282.482 247.232 283.788 246.415C285.095 245.598 286.553 245.19 288.163 245.19C289.54 245.19 290.742 245.47 291.768 246.03C292.818 246.59 293.623 247.325 294.183 248.235V245.47H300.168V265H294.183V262.235C293.6 263.145 292.783 263.88 291.733 264.44C290.707 265 289.505 265.28 288.128 265.28C286.542 265.28 285.095 264.872 283.788 264.055C282.482 263.215 281.443 262.037 280.673 260.52C279.927 258.98 279.553 257.207 279.553 255.2ZM294.183 255.235C294.183 253.742 293.763 252.563 292.923 251.7C292.107 250.837 291.103 250.405 289.913 250.405C288.723 250.405 287.708 250.837 286.868 251.7C286.052 252.54 285.643 253.707 285.643 255.2C285.643 256.693 286.052 257.883 286.868 258.77C287.708 259.633 288.723 260.065 289.913 260.065C291.103 260.065 292.107 259.633 292.923 258.77C293.763 257.907 294.183 256.728 294.183 255.235ZM310.483 239.1V265H304.498V239.1H310.483ZM313.63 255.2C313.63 253.193 314.004 251.432 314.75 249.915C315.52 248.398 316.559 247.232 317.865 246.415C319.172 245.598 320.63 245.19 322.24 245.19C323.524 245.19 324.69 245.458 325.74 245.995C326.814 246.532 327.654 247.255 328.26 248.165V239.1H334.245V265H328.26V262.2C327.7 263.133 326.895 263.88 325.845 264.44C324.819 265 323.617 265.28 322.24 265.28C320.63 265.28 319.172 264.872 317.865 264.055C316.559 263.215 315.52 262.037 314.75 260.52C314.004 258.98 313.63 257.207 313.63 255.2ZM328.26 255.235C328.26 253.742 327.84 252.563 327 251.7C326.184 250.837 325.18 250.405 323.99 250.405C322.8 250.405 321.785 250.837 320.945 251.7C320.129 252.54 319.72 253.707 319.72 255.2C319.72 256.693 320.129 257.883 320.945 258.77C321.785 259.633 322.8 260.065 323.99 260.065C325.18 260.065 326.184 259.633 327 258.77C327.84 257.907 328.26 256.728 328.26 255.235ZM356.985 254.92C356.985 255.48 356.95 256.063 356.88 256.67H343.335C343.429 257.883 343.814 258.817 344.49 259.47C345.19 260.1 346.042 260.415 347.045 260.415C348.539 260.415 349.577 259.785 350.16 258.525H356.53C356.204 259.808 355.609 260.963 354.745 261.99C353.905 263.017 352.844 263.822 351.56 264.405C350.277 264.988 348.842 265.28 347.255 265.28C345.342 265.28 343.639 264.872 342.145 264.055C340.652 263.238 339.485 262.072 338.645 260.555C337.805 259.038 337.385 257.265 337.385 255.235C337.385 253.205 337.794 251.432 338.61 249.915C339.45 248.398 340.617 247.232 342.11 246.415C343.604 245.598 345.319 245.19 347.255 245.19C349.145 245.19 350.825 245.587 352.295 246.38C353.765 247.173 354.909 248.305 355.725 249.775C356.565 251.245 356.985 252.96 356.985 254.92ZM350.86 253.345C350.86 252.318 350.51 251.502 349.81 250.895C349.11 250.288 348.235 249.985 347.185 249.985C346.182 249.985 345.33 250.277 344.63 250.86C343.954 251.443 343.534 252.272 343.37 253.345H350.86ZM365.743 260.065H374.213V265H359.058V260.24L367.178 250.405H359.128V245.47H374.038V250.23L365.743 260.065Z" fill="black"/>
</g>
<defs>
<clipPath id="clip0_5_2">
<rect width="500" height="500" fill="white"/>
</clipPath>
</defs>
</svg>
