<svg width="380" height="380" viewBox="0 0 380 380" fill="none" xmlns="http://www.w3.org/2000/svg">
<rect width="380" height="380" fill="white"/>
<path d="M372.722 152.094L372.191 150.735L320.74 16.4684C319.693 13.8369 317.84 11.6045 315.445 10.0916C313.05 8.60447 310.255 7.88821 307.439 8.03955C304.623 8.19089 301.922 9.20255 299.699 10.9379C297.501 12.7232 295.907 15.1422 295.133 17.8658L260.393 124.146H119.72L84.98 17.8658C84.2265 15.1273 82.6286 12.6962 80.4136 10.9183C78.191 9.18287 75.4894 8.17121 72.6735 8.01986C69.8577 7.86852 67.0632 8.58479 64.6674 10.072C62.2784 11.5909 60.4265 13.8213 59.3727 16.4487L7.82355 150.657L7.31179 152.015C-0.094778 171.366 -1.009 192.6 4.70697 212.516C10.4229 232.432 22.4592 249.949 39.001 262.428L39.1782 262.566L39.6506 262.9L118.027 321.59L156.802 350.936L180.422 368.767C183.185 370.865 186.558 372 190.027 372C193.496 372 196.869 370.865 199.632 368.767L223.251 350.936L262.026 321.59L340.876 262.546L341.072 262.389C357.577 249.908 369.585 232.408 375.293 212.519C381 192.63 380.098 171.426 372.722 152.094Z" fill="#171321"/>
</svg>
